<svg width="567" height="351" viewBox="0 0 567 351" fill="none" xmlns="http://www.w3.org/2000/svg">
<g clip-path="url(#clip0_3_79)">
<path d="M335.748 155.426C343.31 154.808 350.001 160.443 350 168.031C349.995 203.382 338.829 237.964 317.912 266.751C294.295 299.257 259.809 322.221 220.711 331.479C181.612 340.738 140.491 335.676 104.804 317.214C69.1175 298.751 41.2295 268.11 26.1985 230.848C11.1675 193.586 9.98887 152.171 22.8764 114.114C35.764 76.0575 61.8642 43.88 96.443 23.4178C131.022 2.95568 171.789 -4.43589 211.351 2.58379C246.387 8.80056 278.423 25.9558 302.956 51.4081C308.222 56.8711 307.314 65.5718 301.439 70.3737C295.564 75.1756 286.953 74.25 281.601 68.8719C261.293 48.4663 235.114 34.7066 206.55 29.6384C173.459 23.7669 139.36 29.9495 110.436 47.065C81.513 64.1804 59.6816 91.0952 48.9019 122.927C38.1221 154.76 39.108 189.401 51.6806 220.569C64.2532 251.737 87.58 277.366 117.43 292.809C147.28 308.252 181.676 312.485 214.379 304.741C247.083 296.997 275.928 277.789 295.683 250.6C312.735 227.131 322.04 199.058 322.505 170.273C322.627 162.686 328.186 156.045 335.748 155.426Z" fill="#7AD0A7"/>
<path d="M139.53 168.61L175.614 203.768" stroke="#7AD0A7" stroke-width="26" stroke-linecap="round"/>
<path d="M176 203.5L245.317 133.763" stroke="#7AD0A7" stroke-width="26" stroke-linecap="round"/>
<path d="M321.748 155.426C329.31 154.808 336.001 160.443 336 168.031C335.995 203.382 324.829 237.964 303.912 266.751C280.295 299.257 245.809 322.221 206.711 331.479C167.612 340.738 126.491 335.676 90.8041 317.214C55.1175 298.751 27.2295 268.11 12.1985 230.848C-2.83251 193.586 -4.01113 152.171 8.87643 114.114C21.764 76.0575 47.8642 43.88 82.443 23.4178C117.022 2.95568 157.789 -4.43589 197.351 2.58379C232.387 8.80056 264.423 25.9558 288.956 51.4081C294.222 56.8711 293.314 65.5718 287.439 70.3737C281.564 75.1756 272.953 74.25 267.601 68.8719C247.293 48.4663 221.114 34.7066 192.55 29.6384C159.459 23.7669 125.36 29.9495 96.4363 47.065C67.513 64.1804 45.6816 91.0952 34.9019 122.927C24.1221 154.76 25.108 189.401 37.6806 220.569C50.2532 251.737 73.58 277.366 103.43 292.809C133.28 308.252 167.676 312.485 200.379 304.741C233.083 296.997 261.928 277.789 281.683 250.6C298.735 227.131 308.04 199.058 308.505 170.273C308.627 162.686 314.186 156.045 321.748 155.426Z" fill="#00B85F"/>
<path d="M125.53 168.61L161.614 203.768" stroke="#00B85F" stroke-width="26" stroke-linecap="round"/>
<path d="M162 203.5L231.317 133.763" stroke="#00B85F" stroke-width="26" stroke-linecap="round"/>
</g>
<g clip-path="url(#clip1_3_79)">
<path d="M558.571 244.053C563.043 243.687 567.001 247.024 567 251.518C566.997 272.455 560.393 292.937 548.022 309.986C534.054 329.239 513.659 342.839 490.535 348.322C467.411 353.806 443.09 350.808 421.984 339.874C400.878 328.939 384.384 310.791 375.495 288.722C366.605 266.654 365.908 242.125 373.53 219.585C381.152 197.046 396.588 177.988 417.039 165.869C437.49 153.751 461.601 149.373 484.999 153.53C505.72 157.212 524.667 167.373 539.177 182.447C542.291 185.683 541.754 190.836 538.28 193.68C534.805 196.524 529.712 195.975 526.547 192.79C514.536 180.705 499.053 172.555 482.16 169.554C462.589 166.076 442.422 169.738 425.315 179.875C408.209 190.012 395.297 205.952 388.922 224.805C382.547 243.658 383.13 264.175 390.565 282.635C398.001 301.094 411.797 316.273 429.451 325.42C447.106 334.566 467.448 337.073 486.79 332.486C506.132 327.9 523.192 316.524 534.875 300.421C544.96 286.521 550.464 269.894 550.739 252.846C550.811 248.353 554.099 244.42 558.571 244.053Z" fill="#7AD0A7"/>
<path d="M442.522 251.861L463.863 272.684" stroke="#7AD0A7" stroke-width="20" stroke-linecap="round"/>
<path d="M464.091 272.525L505.087 231.223" stroke="#7AD0A7" stroke-width="20" stroke-linecap="round"/>
<path d="M550.291 244.053C554.763 243.687 558.721 247.024 558.72 251.518C558.717 272.455 552.113 292.937 539.742 309.986C525.774 329.238 505.378 342.839 482.255 348.322C459.131 353.806 434.81 350.808 413.704 339.874C392.598 328.939 376.104 310.791 367.215 288.722C358.325 266.653 357.628 242.125 365.25 219.585C372.872 197.046 388.308 177.988 408.759 165.869C429.21 153.75 453.321 149.373 476.719 153.53C497.44 157.212 516.387 167.372 530.897 182.447C534.011 185.682 533.474 190.836 530 193.68C526.525 196.524 521.432 195.975 518.267 192.79C506.256 180.705 490.773 172.555 473.88 169.554C454.309 166.076 434.141 169.738 417.035 179.875C399.929 190.011 387.017 205.952 380.642 224.805C374.267 243.658 374.85 264.175 382.285 282.634C389.721 301.094 403.517 316.273 421.171 325.419C438.826 334.566 459.168 337.073 478.51 332.486C497.852 327.9 514.912 316.524 526.595 300.421C536.68 286.521 542.184 269.894 542.459 252.846C542.531 248.353 545.819 244.419 550.291 244.053Z" fill="#00B85F"/>
<path d="M434.242 251.861L455.583 272.684" stroke="#00B85F" stroke-width="20" stroke-linecap="round"/>
<path d="M455.811 272.525L496.807 231.223" stroke="#00B85F" stroke-width="20" stroke-linecap="round"/>
</g>
<g clip-path="url(#clip2_3_79)">
<path d="M445.317 69.8835C447.802 69.6812 450 71.526 450 74.0102C449.998 85.5834 446.33 96.9049 439.457 106.329C431.697 116.971 420.366 124.489 407.519 127.52C394.672 130.551 381.161 128.894 369.436 122.85C357.71 116.805 348.547 106.774 343.608 94.5752C338.669 82.3764 338.282 68.8179 342.517 56.3588C346.751 43.8998 355.327 33.3655 366.688 26.6665C378.05 19.9676 391.445 17.5478 404.444 19.8459C415.956 21.8811 426.482 27.4974 434.543 35.83C436.273 37.6185 435.975 40.467 434.044 42.039C432.114 43.6111 429.285 43.308 427.526 41.5473C420.853 34.8669 412.252 30.3623 402.866 28.703C391.994 26.7808 380.79 28.8049 371.286 34.4082C361.783 40.0114 354.61 48.8228 351.068 59.244C347.526 69.6655 347.85 81.0063 351.981 91.2101C356.112 101.414 363.776 109.804 373.584 114.86C383.392 119.916 394.694 121.302 405.439 118.766C416.184 116.231 425.662 109.943 432.153 101.042C437.756 93.3584 440.813 84.1678 440.966 74.7441C441.006 72.2603 442.833 70.0862 445.317 69.8835Z" fill="#7AD0A7"/>
<path d="M380.846 74.1997L392.702 85.7098" stroke="#7AD0A7" stroke-width="8" stroke-linecap="round"/>
<path d="M392.829 85.622L415.604 62.7914" stroke="#7AD0A7" stroke-width="8" stroke-linecap="round"/>
<path d="M440.717 69.8835C443.202 69.6812 445.4 71.526 445.4 74.0102C445.398 85.5834 441.73 96.9049 434.857 106.329C427.097 116.971 415.766 124.489 402.919 127.52C390.073 130.551 376.561 128.894 364.836 122.85C353.11 116.805 343.947 106.774 339.008 94.5752C334.069 82.3764 333.682 68.8179 337.917 56.3588C342.151 43.8998 350.727 33.3655 362.088 26.6665C373.45 19.9676 386.845 17.5478 399.844 19.8459C411.356 21.8811 421.882 27.4974 429.943 35.83C431.673 37.6185 431.375 40.467 429.444 42.039C427.514 43.6111 424.685 43.308 422.926 41.5473C416.253 34.8669 407.652 30.3623 398.266 28.703C387.394 26.7808 376.19 28.8049 366.686 34.4082C357.183 40.0114 350.01 48.8228 346.468 59.244C342.926 69.6655 343.25 81.0063 347.381 91.2101C351.512 101.414 359.176 109.804 368.984 114.86C378.792 119.916 390.094 121.302 400.839 118.766C411.584 116.231 421.062 109.943 427.553 101.042C433.156 93.3584 436.213 84.1678 436.366 74.7441C436.406 72.2603 438.233 70.0862 440.717 69.8835Z" fill="#00B85F"/>
<path d="M376.246 74.1997L388.102 85.7098" stroke="#00B85F" stroke-width="8" stroke-linecap="round"/>
<path d="M388.229 85.622L411.004 62.7914" stroke="#00B85F" stroke-width="8" stroke-linecap="round"/>
</g>
<defs>
<clipPath id="clip0_3_79">
<rect width="350" height="336" fill="white"/>
</clipPath>
<clipPath id="clip1_3_79">
<rect width="207" height="199" fill="white" transform="translate(360 152)"/>
</clipPath>
<clipPath id="clip2_3_79">
<rect width="115" height="110" fill="white" transform="translate(335 19)"/>
</clipPath>
</defs>
</svg>
